<svg xmlns="http://www.w3.org/2000/svg" viewBox="0 0 512 400">
  <rect width="512" height="400" fill="#016fd0"/>
  <path d="M286.813 235.933h48.08v-18.133h-33.387l10.56-12.8h21.173v-17.067h-46.933l-23.467 24.32 23.974 23.68zm-93.44-12.8h26.88v12.8h19.2v-40.96h-19.2v12.427h-26.88v-12.427h-19.2v40.96h19.2v-12.8zm198.187-28.16-24.533 24.107 24.533 23.893v-48zm-270.08 48h45.653v-17.387h-27.733v-8h26.24v-16.32h-26.24v-7.04h27.733v-17.387h-45.653v66.134zm-16.107 0h21.547l-21.547-25.173v25.173zm91.947-66.133-39.253 41.387 39.253 41.387h49.28l9.387-24.32h20.053l9.387 24.32h48.693v-22.4l9.387 22.4h29.44l9.387-22.4v22.4h16.32v-82.774h-27.307l-18.347 45.227-18.773-45.227h-25.813v74.667l-23.04-74.667h-22.4l-22.613 52.267h-4.693l-25.6-52.267h-42.347z" fill="white"/>
</svg> 