<svg xmlns="http://www.w3.org/2000/svg" viewBox="0 0 512 400">
  <circle cx="196" cy="196" r="196" fill="#ff5f00"/>
  <path d="M196.7 132.3v-1c0-42.4 19.8-80.2 50.8-104.8-22.6-17.8-51.1-28.5-82-28.5C73.8-2 0 71.7 0 163.5c0 91.7 73.8 165.5 165.5 165.5 31 0 59.4-10.7 82-28.5-31-24.6-50.8-62.4-50.8-104.8v-63.4z" fill="#eb001b"/>
  <path d="M483.5 163.5c0 91.7-73.8 165.5-165.5 165.5-31 0-59.4-10.7-82-28.5 31-24.6 50.8-62.4 50.8-104.8v-63.4.7c0-42.4-19.8-80.2-50.8-104.8 22.6-17.8 51.1-28.5 82-28.5 91.7 0 165.5 73.8 165.5 165.5z" fill="#f79e1b"/>
</svg> 