<svg xmlns="http://www.w3.org/2000/svg" viewBox="0 0 512 400">
  <path d="M376.9 165.5c-3.4 22.3-18.9 22.3-34.1 22.3h-8.7l6.1-38.3c0.4-2.3 2.3-4 4.6-4h4c10.3 0 20.1 0 25.1 5.9 3 3.5 3.9 8.7 3 14.1zm-34.1-51.5h-56.3c-3.8 0-7 2.8-7.6 6.6L256 300.5c-0.4 2.8 1.4 5.4 4.2 5.8 0.3 0 0.5 0.1 0.8 0.1h29.1c3.8 0 7-2.8 7.6-6.6l6.8-42.5c0.6-3.8 3.8-6.6 7.6-6.6h17.8c36.4 0 57.4-17.6 62.9-52.5 2.5-15.2 0.1-27.1-7.1-35.5-7.9-9.2-21.8-14.1-40.1-14.1zm-128.5 105c-3.4 22.3-18.9 22.3-34.1 22.3h-8.7l6.1-38.3c0.4-2.3 2.3-4 4.6-4h4c10.3 0 20.1 0 25.1 5.9 3 3.5 3.9 8.7 3 14.1zm-34.1-51.5h-56.3c-3.8 0-7 2.8-7.6 6.6L93.5 300.5c-0.4 2.8 1.4 5.4 4.2 5.8 0.3 0 0.5 0.1 0.8 0.1h26.9c3.1 0 5.8-2.3 6.3-5.4l6.9-43.7c0.6-3.8 3.8-6.6 7.6-6.6h17.8c36.4 0 57.4-17.6 62.9-52.5 2.5-15.2 0.1-27.1-7.1-35.5-7.9-9.2-21.8-14.1-40.1-14.1z" fill="#003087"/>
  <path d="M385.9 158.1c-2.5 15.2-15.2 15.2-27.4 15.2h-7l4.9-30.8c0.3-1.8 1.9-3.2 3.7-3.2h3.2c8.3 0 16.1 0 20.2 4.7 2.4 2.9 3.1 7.1 2.4 14.1zm-27.4-41.3h-45.2c-3.1 0-5.6 2.2-6.1 5.3l-18.2 115.2c-0.4 2.2 1.1 4.4 3.4 4.7 0.2 0 0.4 0 0.6 0h23.4c3.1 0 5.6-2.2 6.1-5.3l4.9-31c0.5-3.1 3.1-5.3 6.1-5.3h14.3c29.2 0 46.1-14.1 50.5-42.1 2-12.2 0.1-21.7-5.7-28.5-6.3-7.4-17.5-13-32.1-13zm-103.1 84.2c-2.5 15.2-15.2 15.2-27.4 15.2h-7l4.9-30.8c0.3-1.8 1.9-3.2 3.7-3.2h3.2c8.3 0 16.1 0 20.2 4.7 2.4 2.9 3.1 7.1 2.4 14.1zm-27.4-41.3h-45.2c-3.1 0-5.6 2.2-6.1 5.3l-18.2 115.2c-0.4 2.2 1.1 4.4 3.4 4.7 0.2 0 0.4 0 0.6 0h21.6c2.5 0 4.6-1.8 5-4.3l5.5-35c0.5-3.1 3.1-5.3 6.1-5.3h14.3c29.2 0 46.1-14.1 50.5-42.1 2-12.2 0.1-21.7-5.7-28.5-6.2-7.4-17.5-13-32.1-13z" fill="#0070e0"/>
</svg> 