<svg xmlns="http://www.w3.org/2000/svg" viewBox="0 0 1000 324">
  <path d="M434.4 174.2l-34.8-88.5c-5.6-14.3-15.8-18.1-30.5-17.8h-50.1l-.7 3.3c38.9 10 72.5 27.6 114.1 103m-67.2-11.8l-14.3-68.8-8.7 68.8h23m238.1 100.6l25.6-149.3h-40.9l-25.6 149.3h40.9m-195.8-97.5c-.3 17.5 15.4 27.2 27.3 33 12.2 6 16.3 9.9 16.2 15.2-.1 8.2-9.7 11.8-18.7 11.9-15.7.2-33.3-4.2-42.9-8.4l-7.9 32.4c9.7 4.2 27.8 7.9 46.6 8.1 44 0 72.8-20.8 73-53.1.2-41-56.5-43.3-56.1-61.6.1-5.6 5.4-11.5 17-13 5.7-.8 21.5-1.3 39.4 6.7l7-33c-9.6-3.4-22-6.6-37.4-6.6-39.4 0-67.2 22.4-67.5 54.4m-136.1 97.5l-41.3-149.3h-36.8c-8.3 0-15.4 4.9-18.5 12.5l-65.2 136.8h45.9l9.1-25.1h55.9l5.3 25.1h45.6m-71-56.3l23.1-63.4 13 63.4h-36.1" fill="#1434cb"/>
</svg> 